<svg width="60" height="87" viewBox="0 0 60 87" fill="none" xmlns="http://www.w3.org/2000/svg">
<path d="M14 17.5L30.5 12.5M30.5 12.5L46.5 17M30.5 12.5V42.7792C30.5 43.2097 30.7754 43.5918 31.1838 43.7279L45.6343 48.5448C46.548 48.8493 46.5453 50.1426 45.6304 50.4434L14.7939 60.5815C13.8867 60.8797 13.8738 62.1584 14.7747 62.4749L30.5 68" stroke="black" stroke-width="4" stroke-linecap="round" stroke-linejoin="round"/>
<path d="M30.5 43.5L45.6343 48.5448C46.548 48.8493 46.5453 50.1426 45.6304 50.4434L14.7939 60.5815C13.8867 60.8797 13.8738 62.1584 14.7747 62.4749L29.8315 67.7651C30.232 67.9058 30.5 68.2841 30.5 68.7086V74.5" stroke="black" stroke-width="4" stroke-linecap="round" stroke-linejoin="round"/>
<path d="M58 58V84.5H2V2.5H58V29.5" stroke="black" stroke-width="4" stroke-linecap="round" stroke-linejoin="round"/>
</svg>
