<svg width="139" height="199" viewBox="0 0 139 199" fill="none" xmlns="http://www.w3.org/2000/svg">
<path d="M32.6429 39.5536L70.6518 28.0357M70.6518 28.0357L107.509 38.4018M70.6518 28.0357V98.7257C70.6518 99.1561 70.9273 99.5382 71.3356 99.6743L109.25 112.313C110.164 112.617 110.161 113.91 109.247 114.211L30.8297 139.992C29.9225 140.29 29.9095 141.569 30.8105 141.886L70.6518 155.884" stroke="white" stroke-width="10" stroke-linecap="round" stroke-linejoin="round"/>
<path d="M70.6518 99.4464L109.25 112.313C110.164 112.617 110.161 113.91 109.247 114.211L30.8297 139.992C29.9225 140.29 29.9095 141.569 30.8105 141.886L69.9833 155.649C70.3838 155.79 70.6518 156.168 70.6518 156.592V170.857" stroke="white" stroke-width="10" stroke-linecap="round" stroke-linejoin="round"/>
<path d="M134 132.848V193.893H5V5H134V67.1964" stroke="white" stroke-width="10" stroke-linecap="round" stroke-linejoin="round"/>
</svg>
